<svg width="25" height="24" viewBox="0 0 25 24" fill="none" xmlns="http://www.w3.org/2000/svg">
<g id="mdi:linkedin">
<path id="Vector" d="M19.3359 3C19.8664 3 20.3751 3.21071 20.7502 3.58579C21.1252 3.96086 21.3359 4.46957 21.3359 5V19C21.3359 19.5304 21.1252 20.0391 20.7502 20.4142C20.3751 20.7893 19.8664 21 19.3359 21H5.33594C4.8055 21 4.2968 20.7893 3.92172 20.4142C3.54665 20.0391 3.33594 19.5304 3.33594 19V5C3.33594 4.46957 3.54665 3.96086 3.92172 3.58579C4.2968 3.21071 4.8055 3 5.33594 3H19.3359ZM18.8359 18.5V13.2C18.8359 12.3354 18.4925 11.5062 17.8811 10.8948C17.2697 10.2835 16.4405 9.94 15.5759 9.94C14.7259 9.94 13.7359 10.46 13.2559 11.24V10.13H10.4659V18.5H13.2559V13.57C13.2559 12.8 13.8759 12.17 14.6459 12.17C15.0172 12.17 15.3733 12.3175 15.6359 12.5801C15.8984 12.8426 16.0459 13.1987 16.0459 13.57V18.5H18.8359ZM7.21594 8.56C7.6615 8.56 8.08882 8.383 8.40388 8.06794C8.71894 7.75288 8.89594 7.32556 8.89594 6.88C8.89594 5.95 8.14594 5.19 7.21594 5.19C6.76772 5.19 6.33786 5.36805 6.02093 5.68499C5.70399 6.00193 5.52594 6.43178 5.52594 6.88C5.52594 7.81 6.28594 8.56 7.21594 8.56ZM8.60594 18.5V10.13H5.83594V18.5H8.60594Z" fill="black"/>
</g>
</svg>
