<svg width="19" height="18" viewBox="0 0 19 18" fill="none" xmlns="http://www.w3.org/2000/svg">
<path id="Vector" d="M2.90737 0C1.48906 0 0.335938 1.15313 0.335938 2.57143V15.4286C0.335938 16.8469 1.48906 18 2.90737 18H15.7645C17.1828 18 18.3359 16.8469 18.3359 15.4286V2.57143C18.3359 1.15313 17.1828 0 15.7645 0H2.90737ZM14.8444 3.375L10.6739 8.14018L15.5797 14.625H11.7386L8.73326 10.6915L5.28996 14.625H3.38147L7.84129 9.52634L3.13638 3.375H7.07388L9.79397 6.97098L12.9359 3.375H14.8444ZM13.3257 13.4839L6.49933 4.4558H5.36228L12.265 13.4839H13.3217H13.3257Z" fill="black"/>
</svg>
